<svg version="1.2" xmlns="http://www.w3.org/2000/svg" viewBox="0 0 440 380" width="400" height="345">
	<title>illustration-features-tab-3-svg</title>
	<defs>
		<clipPath clipPathUnits="userSpaceOnUse" id="cp1">
			<path d="m0 8c0-4.42 3.58-8 8-8h334c4.42 0 8 3.58 8 8v330c0 4.42-3.58 8-8 8h-334c-4.42 0-8-3.58-8-8z"/>
		</clipPath>
		<clipPath clipPathUnits="userSpaceOnUse" id="cp2">
			<path d="m440 379h-349.78v-295.95h349.78z"/>
		</clipPath>
		<clipPath clipPathUnits="userSpaceOnUse" id="cp3">
			<path d="m438 304.89h-157.82v-219.84h157.82z"/>
		</clipPath>
	</defs>
	<style>
		.s0 { fill: #e8eaf6 } 
		.s1 { fill: #242a45 } 
		.s2 { opacity: .2;fill: #ffffff } 
		.s3 { opacity: .7;fill: #ffffff } 
		.s4 { opacity: .3;fill: #ffffff } 
		.s5 { fill: #ffffff } 
		.s6 { fill: #3a499e } 
		.s7 { fill: #306299 } 
		.s8 { fill: #fa9e89 } 
		.s9 { opacity: .1;fill: #000000 } 
		.s10 { fill: #162f44 } 
		.s11 { fill: #f4f2f9 } 
		.s12 { fill: #e0dfea } 
		.s13 { fill: #6397d9 } 
		.s14 { fill: #8bbff7 } 
		.s15 { fill: #e4dcf1 } 
		.s16 { fill: #8e2b43 } 
		.s17 { fill: #4ec9b4 } 
		.s18 { opacity: .2;fill: #f4f2f9 } 
		.s19 { fill: #ffdedd } 
		.s20 { fill: #fc516b } 
		.s21 { fill: #44ad99 } 
		.s22 { fill: #261f27 } 
		.s23 { fill: #224a7d } 
		.s24 { fill: #8cc5f2 } 
		.s25 { fill: #9b293f } 
		.s26 { fill: #f995a9 } 
		.s27 { fill: #51a595 } 
		.s28 { fill: #41877a } 
		.s29 { fill: #e6846f } 
		.s30 { fill: #cec3e2 } 
		.s31 { fill: #c3b8d8 } 
	</style>
	<g id="Layer">
		<path id="a" class="s0" d="m0 8c0-4.4 3.6-8 8-8h334c4.4 0 8 3.6 8 8v330c0 4.4-3.6 8-8 8h-334c-4.4 0-8-3.6-8-8z"/>
		<g id="Clip-Path" clip-path="url(#cp1)">
			<g id="Layer">
				<path id="Layer" fill-rule="evenodd" class="s1" d="m-3.5 0.2h547v59h-547z"/>
				<g id="Layer">
					<path id="Layer" class="s2" d="m38.5 46.2c-8.9 0-16-7.2-16-16 0-8.9 7.1-16 16-16 8.8 0 16 7.1 16 16 0 8.8-7.2 16-16 16z"/>
					<g id="Layer">
						<path id="Layer" class="s3" d="m69.5 23.2c0-1.7 1.3-3 3-3h114c1.6 0 3 1.3 3 3 0 1.7-1.4 3-3 3h-114c-1.7 0-3-1.3-3-3z"/>
						<path id="Layer" class="s4" d="m69.5 37.2c0-1.7 1.3-3 3-3h58c1.6 0 3 1.3 3 3 0 1.7-1.4 3-3 3h-58c-1.7 0-3-1.3-3-3z"/>
					</g>
				</g>
			</g>
		</g>
		<path id="Layer" class="s5" d="m27 93c0-4.4 3.6-8 8-8h221c4.4 0 8 3.6 8 8v18c0 4.4-3.6 8-8 8h-221c-4.4 0-8-3.6-8-8z"/>
		<path id="Layer" class="s5" d="m27 141c0-4.4 3.6-8 8-8h221c4.4 0 8 3.6 8 8v18c0 4.4-3.6 8-8 8h-221c-4.4 0-8-3.6-8-8z"/>
		<path id="Layer" class="s5" d="m27 189c0-4.4 3.6-8 8-8h221c4.4 0 8 3.6 8 8v18c0 4.4-3.6 8-8 8h-221c-4.4 0-8-3.6-8-8z"/>
		<path id="Layer" class="s5" d="m27 237c0-4.4 3.6-8 8-8h221c4.4 0 8 3.6 8 8v18c0 4.4-3.6 8-8 8h-221c-4.4 0-8-3.6-8-8z"/>
		<path id="Layer" class="s5" d="m27 285c0-4.4 3.6-8 8-8h221c4.4 0 8 3.6 8 8v18c0 4.4-3.6 8-8 8h-221c-4.4 0-8-3.6-8-8z"/>
		<g id="Layer">
			<g id="Clip-Path" clip-path="url(#cp2)">
				<path id="Layer" fill-rule="evenodd" class="s6" d="m138.9 237.6c-18.5-26.1-39.8-38.4-31.8-65.7 7.9-27.3 42.8-51.5 98.5-68.3 26.9-8 75.9-17.6 120.3-20 36.5-1.9 69.9 1 85.7 13.5 44.4 35.7-23.9 92.1-11 114.4 6.8 11.7 19.9 22.3 29.5 36.6 11.3 16.8 12.8 37.3 5.1 55.1-2.6 6.1-6.2 11.8-10.9 16.9q-1.5 1.8-3.2 3.5-1.6 1.7-3.3 3.3-1.6 1.7-3.4 3.3-1.7 1.6-3.4 3.1c-21.6 19.3-55.8 40.2-104.3 43.8-92.9 6.8-187-4.4-212.2-37.8q-2.2-2.9-3.2-6c-10.9-32.7 65.1-71.2 47.6-95.7z"/>
			</g>
			<path id="Layer" fill-rule="evenodd" class="s7" d="m185.5 173.9l16.9-2.9 2.6 15.8-21 6.2z"/>
			<path id="Layer" fill-rule="evenodd" class="s8" d="m203 172.1c0 0 13.2-0.3 27-6.1l-6.5 12.3-18.7 5.7z"/>
			<g id="Layer">
				<g id="Clip-Path" clip-path="url(#cp3)">
					<path id="Layer" fill-rule="evenodd" class="s2" d="m331.8 85.6c34-1.9 65.1 1 79.7 13.5 41.4 35.6-22.2 91.9-10.2 114.2 6.3 11.7 18.6 22.3 27.5 36.5 10.5 16.8 11.9 37.3 4.8 55.1-6.7-66-144.6-127.6-152.7-167.7-7.3-36.3 40.5-49.2 50.9-51.6z"/>
				</g>
			</g>
			<path id="Layer" fill-rule="evenodd" class="s9" d="m419 327.9c-21.5 24.5-56.9 46.8-100.1 50.2-82.6 6.7-204.7-4.2-227.1-36.9-1.3-1.9-4.6-7.3-3.6-15.2z"/>
			<path id="Layer" fill-rule="evenodd" class="s9" d="m366.4 329.8c0 0 10.1 0.6 9.9 3.7-0.2 3-6.5 9.7-6.5 9.7l9.5-3.4 28.7-1.1-3.1 2.7c0 0-23.1 1.1-24.2 1.9-1 0.8-14.2 10.8-16.5 11.2-2.3 0.4-146.7 0.2-146.7 0.2 0 0-14.8 0.6-17.3-4-2.5-4.6-11.5-4.3-14-0.3-2.5 4-2.1 18.6-2.1 18.6 0 0-6.8-1.8-7.2-1.9-23.5-10-49.9-41.1-49.9-41.1z"/>
			<path id="Layer" fill-rule="evenodd" class="s10" d="m397 290.7l-14.4 49.2c0 0-2.1 2.4-3.6 0.1l9.7-50zm19.9-1.7l7.1 33.1-3.4 3.9-9.6-36z"/>
			<path id="Layer" fill-rule="evenodd" class="s11" d="m189.1 283.2c-10.3-12-21.8-27.5-21.1-35.8l28.8-2.4c0 0 26.5 37.8 25.1 47.2-1.3 9.5-17.3 48.8-17.3 48.8l-4.8-0.7h-0.1l-2.2-0.3 1-5.7 6-34.2c0 0-7.3-7.4-15.4-16.9z"/>
			<path id="Layer" fill-rule="evenodd" class="s12" d="m189 281.7l8-17.7c0 0 14.3 22.7 14 30-0.3 6.9-10.6 40.8-11.5 44.6v0.4l-0.1-0.4-2.2-0.3 6.9-39.8c0 0-7.2-7.3-15.1-16.8z"/>
			<path id="Layer" fill-rule="evenodd" class="s13" d="m166 248.1c0.3-6.1 1.6-42.2 1-55-0.3-5.7 0.8-9.9 2.6-12.9 2.7-4.4 7.2-6.2 11.7-6.2 7.7 0 14.7 24.9 14.7 24.9l-1.3 47.7-28.7 2.4q0 0 0-0.9z"/>
			<path id="Layer" fill-rule="evenodd" class="s14" d="m166 246c0.2-6.1 1.6-43.1 1-55.9-0.3-5.7 0.7-9.9 2.5-12.9l2.7-3.2 7.8 0.9-6.7 13.6 0.6 56.8z"/>
			<path id="Layer" fill-rule="evenodd" class="s7" d="m178.5 190l17.5 7.4-0.4 14.6-0.6 18-21-40z"/>
			<path id="Layer" fill-rule="evenodd" class="s5" d="m219 344.3v-220.6c0-4.8 3.9-8.7 8.7-8.7h128.6c4.8 0 8.7 3.9 8.7 8.7v220.6c0 4.8-3.9 8.7-8.7 8.7h-128.6c-4.8 0-8.7-3.9-8.7-8.7z"/>
			<path id="Layer" fill-rule="evenodd" class="s15" d="m230.3 143h123.4c1.8 0 3.3 1.5 3.3 3.3v88.4c0 1.8-1.5 3.3-3.3 3.3h-123.4c-1.8 0-3.3-1.5-3.3-3.3v-88.4c0-1.8 1.5-3.3 3.3-3.3z"/>
			<path id="Layer" fill-rule="evenodd" class="s16" d="m291.1 167l1.6 1.2 3.3 14.4-0.1 2.3-5.2 0.1q-0.5 0-1-0.3c-1.5-0.8-2.2-3.3-1.3-5.4 0.4-1.2 1.5-3.3 1.7-4.2 0.3-2.2 1-8.1 1-8.1z"/>
			<path id="Layer" fill-rule="evenodd" class="s17" d="m278 199.9c3-9.4 17.2-12.2 28.5-7.9 3.6 1.3 6.9 3.5 9.5 6.3 10.5 11.8 4 42.5 4 42.5h-1.8l-54.2 0.2c0 0 10-28.6 14-41.1z"/>
			<path id="Layer" fill-rule="evenodd" class="s8" d="m306.2 192.5c0 0-2.3 6-7.1 7.3-4.9 1.3-10.5-3.2-10.1-8.5 0 0 4.7-0.7 5.5-2.9 0.9-2.8 0.3-2.9 0.3-2.9 0 0-1.9-3.5-2.5-6-0.6-2.6 0.3-12.4 4.6-13.3 2.7-0.6 7 0.3 10.1 4.7 0 0-1.5 8.6-3.7 12.7-2.1 4.1-3.2 6 2.9 8.9z"/>
			<path id="Layer" fill-rule="evenodd" class="s18" d="m230.2 116l132.8 186.2v42.3c0 4.7-3.7 8.5-8.3 8.5h-120.1c-5.3 0-9.6-4.4-9.6-9.9v-223.3c0-2.9 2.3-3.9 5.2-3.8z"/>
			<path id="Layer" fill-rule="evenodd" class="s17" d="m262.7 238l-10.7-44.2 11-1.8 7 30.4z"/>
			<path id="Layer" fill-rule="evenodd" class="s8" d="m256.1 192c0 0-0.1-2.8-1.3-3.1-1.2-0.3-2.3-4.3-2.3-4.6 0-0.3-1.7-4.8-1.5-5.3 0.1-0.3 0.6-0.1 0.8 0.2l1 2.2 0.2-0.2c0 0-0.6-2.3-1.2-3.8-0.2-0.6-0.2-0.9-0.2-1.2 0.1-0.4 0.6-0.4 0.7-0.1l2 4.3 0.3-0.2c0 0-1.3-4.9-1.3-6.1 0-0.6 0.2-0.7 0.5-0.7 0.2 0 0.4 0.4 0.4 0.7l1.7 5.3 0.4-0.3c0 0-0.8-2.9-0.9-4.8-0.1-0.6-0.2-1.2 0.1-1.3 0.5-0.1 0.7 0.9 1 1.6 0.5 1.6 2.8 7.8 2.8 7.8 0 0 0.7-1.9 1.1-2.7 0.6-1.2 1.6-0.5 1.6-0.5 0 0-0.6 4.1-0.3 5.9 0.3 1.7-1.5 2.9-1.5 2.9l0.6 3.1z"/>
			<path id="Layer" fill-rule="evenodd" class="s19" d="m328 261.6v-3.2c0-1.3 1.1-2.4 2.4-2.4h22.2c1.3 0 2.4 1.1 2.4 2.4v3.2c0 1.3-1.1 2.4-2.4 2.4h-22.2c-1.3 0-2.4-1.1-2.4-2.4zm-32 0v-3.2c0-1.3 1.1-2.4 2.4-2.4h22.2c1.3 0 2.4 1.1 2.4 2.4v3.2c0 1.3-1.1 2.4-2.4 2.4h-22.2c-1.3 0-2.4-1.1-2.4-2.4zm-34 0v-3.2c0-1.3 1.1-2.4 2.4-2.4h22.2c1.3 0 2.4 1.1 2.4 2.4v3.2c0 1.3-1.1 2.4-2.4 2.4h-22.2c-1.3 0-2.4-1.1-2.4-2.4zm-32 0v-3.2c0-1.3 1.1-2.4 2.4-2.4h22.3c1.2 0 2.3 1.1 2.3 2.4v3.2c0 1.3-1.1 2.4-2.3 2.4h-22.3c-1.3 0-2.4-1.1-2.4-2.4z"/>
			<path id="Layer" fill-rule="evenodd" class="s11" d="m232 280.6v-3.2c0-1.3 1.1-2.4 2.5-2.4h118c1.4 0 2.5 1.1 2.5 2.4v3.2c0 1.3-1.1 2.4-2.5 2.4h-118c-1.4 0-2.5-1.1-2.5-2.4zm120.5 18.4c1.4 0 2.5-1.1 2.5-2.4v-3.2c0-1.3-1.1-2.4-2.5-2.4h-118c-1.4 0-2.5 1.1-2.5 2.4v3.2c0 1.3 1.1 2.4 2.5 2.4zm-117.9 16h117.9c1.5 0 2.6-1.1 2.6-2.4v-3.2c0-1.3-1.1-2.4-2.6-2.4h-117.9c-1.4 0-2.5 1.1-2.5 2.4v3.2c0 1.3 1.1 2.4 2.5 2.4zm0 13h117.9c1.5 0 2.6-1.1 2.6-2.4v-3.2c0-1.3-1.1-2.4-2.6-2.4h-117.9c-1.4 0-2.5 1.1-2.5 2.4v3.2c0 1.3 1.1 2.4 2.5 2.4z"/>
			<path id="Layer" fill-rule="evenodd" class="s20" d="m310.4 181.3c0.9 2.1 3.5 5.4 2.3 7.7-1.3 2.4-11.5-0.2-11.7-0.7-0.2-0.4 0.4-2.7 0.4-2.7 1.6-1.4 4.4-11 4.4-11l-3.4-1.2-0.6-3.2-1.1 2.8-6.7-1.2 0.2-2.9c-1.9 0.9-2.2 4.2-2.2 4.2 0 0-12.9-8.4-1-13.5 11.9-5.1 18.2 3.7 18.2 3.7 2.8 4.3 0.4 15.8 1.2 18z"/>
			<path id="Layer" fill-rule="evenodd" class="s15" d="m336 136c0-1.7 1.1-3 2.4-3h17.2c1.3 0 2.4 1.3 2.4 3 0 1.7-1.1 3-2.4 3h-17.2c-1.3 0-2.4-1.3-2.4-3z"/>
			<path id="Layer" fill-rule="evenodd" class="s21" d="m312 211c0 0-2.7 19.3-5.7 27h-16.1c0 0-2.6-8.1 10.1-10.8 8.8-1.9 11.7-16.2 11.7-16.2zm-31.6-5c0 0-3.3 10-2.7 13 0.7 3 3.3 5.2 3.3 7.2 0 2-1.6 9.6-1.6 9.6l-9.4 0.2c0 0 1.6-0.3 5.1-3.1 5.4-4.2 0.8-13.6 1.9-18.9 0.6-2.8 3.4-8 3.4-8zm-10.4 15.8c0 0-0.2 8.4-1.9 7.1-1.7-1.3-0.7-13.8-2.1-18.1-1.5-4.3-6-18-6-18l3.8-0.8z"/>
			<path id="Layer" fill-rule="evenodd" class="s8" d="m244.6 183.5c0 0-1.6 0.7-3.5 3-0.6 0.8-4 2-4.8 3-11.7 14-27.2 24.8-37.2 20.5-12.7-5.5-15.1-10.6-15.1-10.6l8.4-11.3c0 0 9.7 14.7 17.4 10.7 7.8-4 23.1-14.6 23.1-14.6l0.4-6.4c0 0 0.9-0.3 1.4 1 0.4 1.2 0.4 2.3 0.4 2.3l6.1-7c0 0 1.1-0.4 0.8 0.7-0.4 1.2-2.5 4.4-2.5 4.4 0 0-0.2 0.6 0.2 0.3 0.6-0.3 4.8-5.1 4.8-5.1 0 0 1 0 0.6 0.9-0.3 0.7-2.9 4.1-3.8 5.4-0.2 0.3 0.3 0.2 0.3 0.2l3.5-3c0.5-0.3 1-0.2 0.9 0.4-0.1 0.4-1 1.5-1.6 1.9-1.4 1.1-2.4 3-2.4 3l3-1.1c0 0 0.6 0.5-0.4 1.4zm-54-36c0 0 2.1 15.1 1.2 18.3-0.9 3.2-6.5 2.6-6.5 2.6 0 0 0 2 0.9 4.1 0.3 0.9 1.2 2 1.9 2.9 0.8 0.9 1.4 1.6 1.4 1.6l-12.6-2.2-3.9-28.3c15.1-8.4 17.6 1 17.6 1z"/>
			<path id="Layer" fill-rule="evenodd" class="s22" d="m178.1 149l0.4 2.8c0 0-2.2 4.8-2.6 4.2-0.3-0.6-3.6-1.9-2.8 1 0.7 3 2 2.6 2 2.6l-1.6 6.4c0 0-7.4-14.3-7.5-16-0.1-1.8 3-2.9 3-2.9 0 0-0.1-2.6 5-6.2 5.1-3.6 13.7-1.2 15.4 0.2 1.7 1.5 6.6 0.8 6.6 0.8-2.8 4-5.1 3.3-5.1 3.3 1.1 2 4.9 2.3 4.9 2.3-6 4-12.2-0.7-12.2-0.7-6.6-1.4-5.5 2.2-5.5 2.2z"/>
			<path id="Layer" fill-rule="evenodd" class="s5" d="m166.1 245.5c0-0.3-0.1 0.9-0.1 0.9l29.4-2.4c0 0 6 49-20.2 109l-6.5-1.2c0 0 6.7-57.9 3.1-72.4-3.3-13.2-5.4-30.9-5.7-33.9z"/>
			<path id="Layer" fill-rule="evenodd" class="s13" d="m204.3 337.1l7.5 5.8c0 0 3-0.3 3.6 1.1 0.5 1.3 0.6 2.9 0.6 2.9l-7.9 0.1-13.1-5.2 2.1-5.8zm-36.9 15.9l-1.4 5.1c0 0 5.2 5.9 8.6 9 3.5 3 8.4 3.9 8.4 3.9 0 0 1.5-1.7 0.8-4.2-0.9-2.9-3.1-3.4-4-4.6-2.7-3.5-5.4-7.8-5.4-7.8 0 0-7-1.4-7-1.4z"/>
			<path id="Layer" fill-rule="evenodd" class="s23" d="m403 275c16 0 29 3.1 29 7 0 3.9-13 7-29 7-16 0-29-3.1-29-7 0-3.9 13-7 29-7z"/>
			<path id="Layer" fill-rule="evenodd" class="s13" d="m403 274c16 0 29 3.1 29 7 0 3.9-13 7-29 7-16 0-29-3.1-29-7 0-3.9 13-7 29-7z"/>
			<path id="Layer" fill-rule="evenodd" class="s10" d="m407 274c6.6 0 12 1.3 12 3 0 1.7-5.4 3-12 3-6.6 0-12-1.3-12-3 0-1.7 5.4-3 12-3zm25 6v4c0 0-0.1 2.4-5 4l1.2-4.3c0 0 3.4-1.5 3.8-3.7z"/>
			<path id="Layer" fill-rule="evenodd" class="s24" d="m377.3 283.2l1.7 4.8c-5.4-1.9-5-3.9-5-3.9v-4.1c0.5 2 3.3 3.2 3.3 3.2z"/>
			<path id="Layer" fill-rule="evenodd" class="s20" d="m411 267l-0.8 2.6-1.8 5.3q0 0.2-0.1 0.4-0.1 0.2-0.1 0.3-0.1 0.2-0.2 0.3-0.1 0.2-0.2 0.3c-0.9 1.1-2.4 1.8-3.9 1.8h-4.3c-2.2 0-4.1-1.4-4.6-3.3l-2-7.7z"/>
			<path id="Layer" fill-rule="evenodd" class="s25" d="m402 265c5 0 9 0.4 9 1 0 0.6-4 1-9 1-5 0-9-0.4-9-1 0-0.6 4-1 9-1z"/>
			<path id="Layer" fill-rule="evenodd" class="s26" d="m407.9 271q0.1-0.2 0-0.4 0-0.1-0.2-0.2-0.1-0.2-0.2-0.2-0.2-0.1-0.3-0.1c-1.9 0.1-5-0.1-6.2-0.3 3.8 0.4 8-0.8 8-0.8 0 0-0.1 0.4-0.2 0.7l-1.6 5.6q-0.1 0.2-0.1 0.4-0.1 0.2-0.2 0.3-0.1 0.2-0.2 0.4-0.1 0.1-0.2 0.3l-2.1 0.3q0.5-0.1 1-0.3c1.6-0.7 2.3-4.1 2.5-5.7z"/>
			<path id="Layer" fill-rule="evenodd" class="s27" d="m402 262.1l0.3-1.8c0 0 0.6-1.6 1.2-1.5 0.6 0.2 1.1-0.6 1.1-0.6 0 0 0.7-1.7 1.8-1.9 1.1-0.2 2.5-3.1 2.6-3.3 0 0 0.5 7.1-3.2 9-3.6 1.9-3.6 5-3.6 5h-0.5l-0.7-3.1z"/>
			<path id="Layer" fill-rule="evenodd" class="s17" d="m405.4 270c-0.3-2.4-2.1-3.5-2.9-3.7-0.8-0.2-1.3-2.1-0.9-3.9 0.4-1.9-2.2-2.9-4-4.3-1.8-1.5 1.5-5.5-2.6-11.1-4.1-5.6-0.6-7-0.6-7 12.3 6.6 11.6 30 11.6 30z"/>
			<path id="Layer" fill-rule="evenodd" class="s28" d="m408.4 262.7c1.5-0.8 5.2-2.2 5.2-8.6l0.4-1.1c0 0 0.5 7.1-3.4 9-4 1.9-4 5-4 5h-0.6v-1.2c0 0 0.9-2.2 2.4-3.1z"/>
			<path id="Layer" fill-rule="evenodd" class="s7" d="m188 180.5c-5.6 2-14-2.6-14-2.6l0.7-1.9c0.9 1.3 11.5 1.1 11.5 1.1z"/>
			<path id="Layer" fill-rule="evenodd" class="s24" d="m201 190.9l-12.6 14.1c0 0-16.8-15.1-16.4-19.8 0.4-4.7 6.6-14.5 16-5.5 9.2 8.7 13 11.2 13 11.2z"/>
			<path id="Layer" fill-rule="evenodd" class="s11" d="m171.4 279.9c-3-13.3-5.1-30.1-5.4-33.2l7.9-0.7c0 0 4.1 23.7 5.3 33.2 4 31.3-8.1 73.8-8.1 73.8l-2.5-0.3c0 0 6.2-58.3 2.8-72.8z"/>
			<path id="Layer" fill-rule="evenodd" class="s29" d="m179.1 168.1c0.3-0.4 3.3 0.4 3.3 0.4 0 0 0 2.1 0.8 4.3 0.3 1 1.1 2.2 1.8 3.2-0.4 0-1.3-0.1-2.7-0.4-3.2-0.7-3.5-7.1-3.2-7.5z"/>
			<path id="Layer" fill-rule="evenodd" class="s30" d="m346 160c4.1 0 8 1.5 11 4v30c-3 2.5-6.9 4-11 4-10 0-18-8.5-18-19 0-10.5 8-19 18-19z"/>
			<path id="Layer" fill-rule="evenodd" class="s31" d="m344.7 161c3.9 0 7.5 1.5 10.3 3.9v29.2c-2.8 2.4-6.4 3.9-10.3 3.9-9.2 0-16.7-8.3-16.7-18.5 0-10.2 7.5-18.5 16.7-18.5z"/>
			<path id="Layer" fill-rule="evenodd" class="s21" d="m304.3 192c3.6 1.3 7 3.3 9.6 6 10.7 11.1 4.1 40 4.1 40h-1.8-0.1c0 0-1.1-5.4 0-9.7 1.2-4.3 3.4-10.7 1.1-13.7-2.3-3 2.4-7.7-3.1-13.3-5.4-5.6-9.5-6.7-9.8-6.5-0.3 0.2-2.3 1.3-2.3 1.3z"/>
		</g>
	</g>
</svg>